<svg xmlns="http://www.w3.org/2000/svg" viewBox="0 0 128 128"><g transform="translate(0,128) scale(0.1,-0.1)" fill="#000000"><path d="M565 1184 c-99 -36 -159 -146 -136 -249 44 -197 314 -231 404 -50 41 82 28 168 -34 239 -61 69 -148 92 -234 60z"/><path d="M141 1023 c-52 -27 -76 -66 -75 -122 1 -62 30 -104 89 -127 43 -16 47 -16 90 0 52 20 82 57 90 112 16 103 -102 186 -194 137z"/><path d="M1021 1023 c-52 -27 -76 -66 -75 -122 1 -62 30 -104 89 -127 43 -16 47 -16 90 0 52 20 82 57 90 112 16 103 -102 186 -194 137z"/><path d="M116 670 c-37 -12 -85 -56 -102 -97 -10 -23 -14 -79 -14 -197 0 -213 -1 -211 132 -211 l93 0 5 155 c6 166 17 209 74 283 14 19 26 36 26 39 0 3 -18 13 -40 22 -43 17 -126 20 -174 6z"/><path d="M525 666 c-93 -29 -159 -87 -197 -171 -19 -42 -23 -72 -26 -191 -5 -166 4 -196 66 -214 52 -16 539 -10 568 7 39 22 47 62 42 210 -4 117 -8 146 -27 191 -32 70 -115 146 -183 167 -62 18 -187 19 -243 1z"/><path d="M990 664 c-19 -8 -36 -17 -38 -19 -3 -2 7 -20 22 -40 59 -77 70 -118 76 -285 l5 -155 70 -3 c83 -4 109 2 135 28 18 18 20 34 20 184 0 92 -5 177 -11 193 -15 42 -68 92 -109 103 -51 14 -130 12 -170 -6z"/></g></svg>