<svg xmlns="http://www.w3.org/2000/svg" viewBox="0 0 128 128"><g transform="translate(0,128) scale(0.1,-0.1)" fill="#000000"><path d="M281 1263 c-21 -19 -261 -548 -261 -577 0 -36 24 -59 96 -92 116 -53 111 -58 116 104 4 150 14 183 71 226 27 20 41 21 373 24 313 2 345 4 342 19 -3 18 -657 313 -694 313 -12 0 -31 -8 -43 -17z"/><path d="M353 870 c-12 -5 -26 -18 -32 -29 -7 -13 -11 -129 -11 -329 l0 -309 23 -21 c19 -18 35 -22 90 -22 l67 0 0 50 0 50 -40 0 -40 0 0 135 0 135 375 0 375 0 0 -135 0 -135 -43 0 -43 0 0 -50 1 -50 68 0 c59 0 71 3 92 25 l25 24 0 300 c0 318 -3 340 -47 360 -29 13 -826 14 -860 1z m807 -135 l0 -45 -375 0 -375 0 0 45 0 45 375 0 375 0 0 -45z"/><path d="M689 387 c-24 -13 -57 -43 -74 -66 -27 -38 -30 -51 -30 -115 0 -64 4 -78 29 -114 34 -50 112 -92 170 -92 106 1 206 100 206 205 0 148 -170 251 -301 182z m108 -53 c3 -8 16 -20 29 -24 34 -13 21 -43 -16 -35 -17 4 -31 1 -39 -9 -10 -12 -4 -18 31 -38 37 -20 43 -28 46 -60 3 -30 -1 -40 -21 -53 -14 -9 -27 -25 -30 -36 -6 -21 -37 -16 -37 6 0 7 -12 16 -26 19 -17 5 -24 12 -22 24 3 13 12 16 46 14 36 -3 42 -1 42 16 0 12 -11 24 -31 32 -62 26 -74 83 -23 116 13 9 24 23 24 30 0 19 19 18 27 -2z"/></g></svg>