<svg xmlns="http://www.w3.org/2000/svg" viewBox="0 0 128 128"><g transform="translate(0,128) scale(0.1,-0.1)" fill="#000000"><path d="M67 1133 c-4 -3 -7 -112 -7 -240 l0 -234 33 3 c28 3 35 10 59 58 34 69 56 179 65 315 l6 105 -75 0 c-41 0 -78 -3 -81 -7z"/><path d="M260 1088 c0 -123 -34 -317 -67 -381 -8 -16 -12 -31 -10 -34 11 -10 87 38 116 74 68 82 121 237 121 354 l0 39 -80 0 -80 0 0 -52z"/><path d="M456 1060 c-16 -199 -109 -363 -238 -420 l-48 -21 24 -37 c25 -38 50 -111 60 -172 l6 -35 57 0 c32 0 68 -4 80 -8 20 -7 21 -6 11 35 -14 63 -50 120 -114 176 l-55 50 38 7 c61 11 157 61 214 112 58 53 124 148 134 193 4 17 10 30 15 30 5 0 11 -13 15 -30 10 -45 76 -140 134 -193 57 -51 153 -101 214 -112 l38 -7 -55 -50 c-64 -56 -100 -113 -114 -176 -10 -41 -9 -42 11 -35 12 4 48 8 80 8 l57 0 6 35 c10 61 35 134 60 172 l24 37 -48 21 c-129 57 -224 225 -239 423 l-6 77 -177 0 -177 0 -7 -80z"/><path d="M860 1101 c0 -111 45 -253 108 -338 29 -39 117 -101 128 -91 2 3 -4 25 -15 49 -28 63 -49 179 -57 307 l-7 112 -79 0 -78 0 0 -39z"/><path d="M1064 1028 c8 -130 37 -265 69 -323 18 -32 29 -41 55 -43 l32 -3 -2 238 -3 238 -79 3 -79 3 7 -113z"/><path d="M62 423 c3 -189 4 -198 23 -201 15 -2 26 9 44 42 13 25 39 55 57 68 33 22 34 25 28 68 -16 116 -80 220 -134 220 -20 0 -20 -5 -18 -197z"/><path d="M1146 590 c-39 -34 -59 -78 -77 -168 -11 -61 -11 -64 10 -78 34 -24 69 -65 82 -96 9 -21 18 -28 33 -26 20 3 21 8 24 201 2 191 2 197 -17 197 -11 0 -36 -14 -55 -30z"/><path d="M244 321 c-48 -22 -80 -59 -95 -112 -20 -67 -16 -69 134 -69 l133 0 12 58 c21 97 21 95 -28 120 -54 27 -101 28 -156 3z"/><path d="M564 321 c-48 -22 -80 -59 -95 -112 -21 -69 -20 -69 171 -69 191 0 192 0 171 69 -15 53 -47 90 -95 112 -52 24 -100 24 -152 0z"/><path d="M880 318 c-49 -25 -49 -23 -28 -120 l12 -58 133 0 c150 0 154 2 134 69 -15 53 -47 90 -95 112 -55 25 -102 24 -156 -3z"/></g></svg>